<svg version="1.1" id="Layer_1" xmlns="http://www.w3.org/2000/svg" xmlns:xlink="http://www.w3.org/1999/xlink" x="0px" y="0px"
	 width="100%" viewBox="0 0 860 838" enable-background="new 0 0 860 838" xml:space="preserve">
<path fill="#C9CAC9" opacity="1.000000" stroke="none" 
	d="
M469.000000,839.000000 
	C312.666718,839.000000 156.833420,839.000000 1.000104,839.000000 
	C1.000070,559.666809 1.000070,280.333588 1.000035,1.000292 
	C287.666443,1.000195 574.332886,1.000195 860.999512,1.000097 
	C860.999634,280.333038 860.999634,559.666077 860.999817,838.999512 
	C730.500000,839.000000 600.000000,839.000000 469.000000,839.000000 
M414.657104,41.039677 
	C401.298523,42.675743 387.888611,43.976654 374.591095,46.011715 
	C337.074890,51.753223 301.588776,63.929092 267.738220,80.904144 
	C237.675720,95.979591 210.073029,114.702042 185.010818,137.205231 
	C158.085098,161.381668 134.538132,188.385391 115.439713,219.157578 
	C94.407280,253.045914 78.279358,288.993042 68.640610,327.884430 
	C62.610180,352.216675 58.604546,376.799866 57.222752,401.722748 
	C55.484440,433.076050 58.016792,464.202393 64.475121,495.021393 
	C72.143150,531.613037 84.704346,566.296875 102.359428,599.288330 
	C127.017807,645.366699 160.390869,684.125061 200.885162,716.678467 
	C231.279541,741.112488 264.941254,760.274902 301.508575,774.221680 
	C337.859650,788.086121 375.414856,796.567383 414.190186,798.754761 
	C453.803070,800.989319 492.951508,797.288635 531.434326,786.998962 
	C573.197693,775.832092 611.871094,757.938171 647.718933,734.012573 
	C672.587524,717.414673 694.954041,697.823120 715.137024,675.645325 
	C739.739624,648.611023 760.473083,619.091797 776.481750,586.175598 
	C791.579590,555.131958 802.910828,522.900085 808.472839,488.796173 
	C811.038818,473.062866 813.770996,457.254150 814.689148,441.379059 
	C816.014954,418.455414 815.322266,395.486053 812.079041,372.631012 
	C807.807190,342.526733 801.057434,313.070923 789.830627,284.784210 
	C774.995544,247.406082 755.469788,212.788651 729.644104,181.710281 
	C711.244263,159.568115 691.072144,139.322266 668.525024,121.558723 
	C629.214172,90.587982 585.399170,68.198257 537.148071,54.671001 
	C511.115509,47.372738 484.613190,42.543259 457.614594,41.149231 
	C443.652466,40.428314 429.622681,41.017876 414.657104,41.039677 
z"/>
<path fill="#FFFFFF" opacity="1.000000" stroke="none" 
	d="
M415.140259,41.027519 
	C429.622681,41.017876 443.652466,40.428314 457.614594,41.149231 
	C484.613190,42.543259 511.115509,47.372738 537.148071,54.671001 
	C585.399170,68.198257 629.214172,90.587982 668.525024,121.558723 
	C691.072144,139.322266 711.244263,159.568115 729.644104,181.710281 
	C755.469788,212.788651 774.995544,247.406082 789.830627,284.784210 
	C801.057434,313.070923 807.807190,342.526733 812.079041,372.631012 
	C815.322266,395.486053 816.014954,418.455414 814.689148,441.379059 
	C813.770996,457.254150 811.038818,473.062866 808.472839,488.796173 
	C802.910828,522.900085 791.579590,555.131958 776.481750,586.175598 
	C760.473083,619.091797 739.739624,648.611023 715.137024,675.645325 
	C694.954041,697.823120 672.587524,717.414673 647.718933,734.012573 
	C611.871094,757.938171 573.197693,775.832092 531.434326,786.998962 
	C492.951508,797.288635 453.803070,800.989319 414.190186,798.754761 
	C375.414856,796.567383 337.859650,788.086121 301.508575,774.221680 
	C264.941254,760.274902 231.279541,741.112488 200.885162,716.678467 
	C160.390869,684.125061 127.017807,645.366699 102.359428,599.288330 
	C84.704346,566.296875 72.143150,531.613037 64.475121,495.021393 
	C58.016792,464.202393 55.484440,433.076050 57.222752,401.722748 
	C58.604546,376.799866 62.610180,352.216675 68.640610,327.884430 
	C78.279358,288.993042 94.407280,253.045914 115.439713,219.157578 
	C134.538132,188.385391 158.085098,161.381668 185.010818,137.205231 
	C210.073029,114.702042 237.675720,95.979591 267.738220,80.904144 
	C301.588776,63.929092 337.074890,51.753223 374.591095,46.011715 
	C387.888611,43.976654 401.298523,42.675743 415.140259,41.027519 
M291.946808,373.856934 
	C295.468292,406.866150 301.304443,439.384735 311.451080,471.092987 
	C317.840790,491.060699 325.676636,510.265106 338.705536,526.861877 
	C344.663574,534.451538 347.558136,542.910767 347.819183,552.214905 
	C348.047211,560.340271 347.989685,568.599915 346.804138,576.614685 
	C343.507843,598.898743 332.747955,615.865906 310.733093,624.167603 
	C299.680054,628.335632 288.657440,632.590149 277.688110,636.973267 
	C257.921509,644.871643 238.093338,652.635559 218.538773,661.032898 
	C212.932388,663.440430 208.177933,667.831848 202.027451,671.994019 
	C278.235474,739.842163 365.623169,770.641663 465.753082,762.636719 
	C543.664612,756.408020 611.083862,725.239014 669.752380,672.095215 
	C665.224243,668.580994 662.037231,665.213928 658.141663,663.258667 
	C648.043091,658.189819 637.813416,653.283813 627.308716,649.143250 
	C605.791199,640.661926 583.986755,632.910095 562.442261,624.494934 
	C549.085266,619.277832 537.709717,611.450562 531.563416,597.709839 
	C524.578491,582.094116 522.308716,565.726379 524.633362,548.912354 
	C525.429688,543.152588 527.056641,536.734436 530.450989,532.237549 
	C547.536438,509.603088 557.784668,483.961853 565.237549,456.992950 
	C572.168945,431.910583 576.264465,406.279114 579.526428,380.495850 
	C584.154358,343.915833 585.361328,307.468658 575.993042,271.339569 
	C567.270081,237.698959 549.714722,210.045151 520.909546,190.065491 
	C498.388672,174.444641 473.177124,167.084183 445.947205,165.740158 
	C416.587891,164.291016 388.453796,168.555359 362.546173,183.169434 
	C317.074951,208.819031 296.543365,249.847900 290.805542,300.780914 
	C290.351471,305.922913 289.369141,311.082275 289.537628,316.203796 
	C290.160522,335.138702 291.163544,354.061066 291.946808,373.856934 
z"/>
<path fill="#919598" opacity="1.000000" stroke="none" 
	d="
M291.040161,300.016571 
	C296.543365,249.847900 317.074951,208.819031 362.546173,183.169434 
	C388.453796,168.555359 416.587891,164.291016 445.947205,165.740158 
	C473.177124,167.084183 498.388672,174.444641 520.909546,190.065491 
	C549.714722,210.045151 567.270081,237.698959 575.993042,271.339569 
	C585.361328,307.468658 584.154358,343.915833 579.526428,380.495850 
	C576.264465,406.279114 572.168945,431.910583 565.237549,456.992950 
	C557.784668,483.961853 547.536438,509.603088 530.450989,532.237549 
	C527.056641,536.734436 525.429688,543.152588 524.633362,548.912354 
	C522.308716,565.726379 524.578491,582.094116 531.563416,597.709839 
	C537.709717,611.450562 549.085266,619.277832 562.442261,624.494934 
	C583.986755,632.910095 605.791199,640.661926 627.308716,649.143250 
	C637.813416,653.283813 648.043091,658.189819 658.141663,663.258667 
	C662.037231,665.213928 665.224243,668.580994 669.752380,672.095215 
	C611.083862,725.239014 543.664612,756.408020 465.753082,762.636719 
	C365.623169,770.641663 278.235474,739.842163 202.027451,671.994019 
	C208.177933,667.831848 212.932388,663.440430 218.538773,661.032898 
	C238.093338,652.635559 257.921509,644.871643 277.688110,636.973267 
	C288.657440,632.590149 299.680054,628.335632 310.733093,624.167603 
	C332.747955,615.865906 343.507843,598.898743 346.804138,576.614685 
	C347.989685,568.599915 348.047211,560.340271 347.819183,552.214905 
	C347.558136,542.910767 344.663574,534.451538 338.705536,526.861877 
	C325.676636,510.265106 317.840790,491.060699 311.451080,471.092987 
	C301.304443,439.384735 295.468292,406.866150 292.226318,373.105164 
	C292.663330,370.885651 292.991669,369.413177 292.950775,367.950989 
	C292.677979,358.192169 292.299927,348.436310 292.018097,338.677673 
	C291.943420,336.091248 291.391724,333.273712 295.356628,332.582977 
	C295.967224,332.476593 296.547852,329.583923 296.362793,328.075439 
	C295.990967,325.043793 295.081390,322.078094 294.689728,320.373444 
	C293.413025,317.687073 292.259094,316.254211 292.086304,314.711456 
	C291.540100,309.835297 291.361176,304.917969 291.040161,300.016571 
z"/>
<path fill="#8F9294" opacity="1.000000" stroke="none" 
	d="
M290.922852,300.398743 
	C291.361176,304.917969 291.540100,309.835297 292.086304,314.711456 
	C292.259094,316.254211 293.413025,317.687073 294.689728,320.373444 
	C295.081390,322.078094 295.990967,325.043793 296.362793,328.075439 
	C296.547852,329.583923 295.967224,332.476593 295.356628,332.582977 
	C291.391724,333.273712 291.943420,336.091248 292.018097,338.677673 
	C292.299927,348.436310 292.677979,358.192169 292.950775,367.950989 
	C292.991669,369.413177 292.663330,370.885651 292.264709,372.670776 
	C291.163544,354.061066 290.160522,335.138702 289.537628,316.203796 
	C289.369141,311.082275 290.351471,305.922913 290.922852,300.398743 
z"/>
</svg>